<svg xmlns="http://www.w3.org/2000/svg" xmlns:xlink="http://www.w3.org/1999/xlink" width="500" zoomAndPan="magnify" viewBox="0 0 375 374.999991" height="500" preserveAspectRatio="xMidYMid meet" version="1.0"><defs><g/></defs><g fill="#000000" fill-opacity="1"><g transform="translate(-4.314767, 230.249985)"><g><path d="M 85.65625 -91.203125 C 92.457031 -91.203125 97.578125 -89.53125 101.015625 -86.1875 C 104.460938 -82.851562 106.1875 -78.828125 106.1875 -74.109375 C 106.1875 -69.390625 105.1875 -64.316406 103.1875 -58.890625 C 101.1875 -53.472656 98.359375 -47.90625 94.703125 -42.1875 C 91.046875 -36.46875 86.898438 -30.953125 82.265625 -25.640625 C 77.628906 -20.328125 72.429688 -15.476562 66.671875 -11.09375 C 60.910156 -6.71875 55.179688 -3.398438 49.484375 -1.140625 C 49.867188 -0.847656 50.6875 -0.191406 51.9375 0.828125 C 53.195312 1.847656 54.082031 2.5625 54.59375 2.96875 C 55.101562 3.375 55.921875 4.019531 57.046875 4.90625 C 58.171875 5.800781 59.019531 6.4375 59.59375 6.8125 C 60.164062 7.195312 60.941406 7.738281 61.921875 8.4375 C 62.898438 9.144531 63.695312 9.644531 64.3125 9.9375 C 64.925781 10.238281 65.617188 10.582031 66.390625 10.96875 C 67.742188 11.644531 69.023438 11.984375 70.234375 11.984375 C 71.453125 11.984375 72.460938 11.832031 73.265625 11.53125 C 74.078125 11.238281 74.617188 10.910156 74.890625 10.546875 C 75.171875 10.191406 75.414062 9.863281 75.625 9.5625 C 75.84375 9.269531 76.0625 9.125 76.28125 9.125 C 76.832031 9.125 77.109375 9.421875 77.109375 10.015625 C 77.109375 10.609375 76.804688 11.414062 76.203125 12.4375 C 75.609375 13.457031 74.75 14.53125 73.625 15.65625 C 72.5 16.78125 70.617188 17.9375 67.984375 19.125 C 65.347656 20.320312 63.050781 20.921875 61.09375 20.921875 C 54 20.921875 43.898438 13.332031 30.796875 -1.84375 C 26.765625 0.0625 23.066406 1.015625 19.703125 1.015625 C 16.347656 1.015625 13.304688 -0.476562 10.578125 -3.46875 C 7.859375 -6.46875 6.5 -10.316406 6.5 -15.015625 C 6.5 -19.710938 8.160156 -25.550781 11.484375 -32.53125 C 17.597656 -45.625 25.820312 -56.929688 36.15625 -66.453125 C 54.144531 -82.953125 70.644531 -91.203125 85.65625 -91.203125 Z M 94.703125 -75.25 C 94.703125 -78.988281 92.660156 -80.859375 88.578125 -80.859375 C 81.097656 -80.859375 73.4375 -78.765625 65.59375 -74.578125 C 57.75 -70.390625 50.316406 -64.851562 43.296875 -57.96875 C 36.285156 -51.082031 30.472656 -43.523438 25.859375 -35.296875 C 21.242188 -27.066406 18.9375 -20.550781 18.9375 -15.75 C 18.9375 -13.539062 19.488281 -11.988281 20.59375 -11.09375 C 22.976562 -11.09375 26.898438 -12.523438 32.359375 -15.390625 C 37.828125 -18.265625 42.625 -22.0625 46.75 -26.78125 C 47.175781 -27.207031 47.503906 -27.421875 47.734375 -27.421875 C 47.960938 -27.421875 48.117188 -27.34375 48.203125 -27.1875 C 48.296875 -27.039062 48.488281 -26.734375 48.78125 -26.265625 C 49.082031 -25.804688 49.359375 -25.34375 49.609375 -24.875 C 50.296875 -23.550781 50.640625 -22.09375 50.640625 -20.5 C 50.640625 -18.90625 50.0625 -17.210938 48.90625 -15.421875 C 47.757812 -13.640625 45.378906 -11.328125 41.765625 -8.484375 C 46.441406 -10.140625 52.816406 -14.984375 60.890625 -23.015625 C 68.972656 -31.054688 75.546875 -38.65625 80.609375 -45.8125 C 85.671875 -52.976562 89.285156 -59.164062 91.453125 -64.375 C 93.617188 -69.582031 94.703125 -73.207031 94.703125 -75.25 Z M 94.703125 -75.25 "/></g></g></g><g fill="#000000" fill-opacity="1"><g transform="translate(76.552225, 230.249985)"><g><path d="M 57.96875 -20.03125 C 58.78125 -20.03125 59.269531 -19.410156 59.4375 -18.171875 C 59.601562 -16.941406 59.6875 -15.664062 59.6875 -14.34375 C 59.6875 -13.03125 59.5625 -12.117188 59.3125 -11.609375 C 58.070312 -9.222656 55.367188 -6.316406 51.203125 -2.890625 C 47.035156 0.523438 43.082031 2.234375 39.34375 2.234375 C 37.050781 2.234375 34.925781 1.539062 32.96875 0.15625 C 31.007812 -1.21875 30.03125 -3.628906 30.03125 -7.078125 C 30.03125 -10.523438 30.945312 -13.90625 32.78125 -17.21875 C 22.238281 -4 13.96875 2.609375 7.96875 2.609375 C 5.59375 2.609375 3.671875 1.757812 2.203125 0.0625 C 0.734375 -1.632812 0 -3.382812 0 -5.1875 C 0 -7 0.253906 -8.875 0.765625 -10.8125 C 1.273438 -12.75 1.816406 -14.476562 2.390625 -16 C 2.960938 -17.53125 3.8125 -19.421875 4.9375 -21.671875 C 6.0625 -23.929688 6.898438 -25.570312 7.453125 -26.59375 C 8.015625 -27.613281 8.898438 -29.15625 10.109375 -31.21875 C 11.316406 -33.28125 12.910156 -36.050781 14.890625 -39.53125 C 16.867188 -43.019531 18.503906 -45.601562 19.796875 -47.28125 C 21.097656 -48.96875 22.363281 -49.820312 23.59375 -49.84375 C 24.832031 -49.863281 25.914062 -49.363281 26.84375 -48.34375 C 27.78125 -47.320312 28.25 -46.488281 28.25 -45.84375 C 28.25 -45.207031 26.828125 -42.34375 23.984375 -37.25 C 15.566406 -22.019531 11.359375 -13.15625 11.359375 -10.65625 C 11.359375 -10.007812 11.585938 -9.6875 12.046875 -9.6875 C 14.085938 -9.6875 19.164062 -14.109375 27.28125 -22.953125 C 35.40625 -31.796875 40.101562 -37.460938 41.375 -39.953125 C 42.65625 -42.441406 43.898438 -44.535156 45.109375 -46.234375 C 46.328125 -47.929688 47.234375 -48.972656 47.828125 -49.359375 C 49.660156 -50.546875 52.019531 -51.1875 54.90625 -51.28125 C 55.375 -51.28125 55.734375 -51.253906 55.984375 -51.203125 C 56.242188 -51.160156 56.539062 -50.800781 56.875 -50.125 C 57.21875 -49.445312 57.390625 -48.914062 57.390625 -48.53125 C 57.015625 -47.34375 55.328125 -44.175781 52.328125 -39.03125 C 49.328125 -33.882812 47.660156 -30.972656 47.328125 -30.296875 C 42.304688 -19.921875 39.796875 -13.160156 39.796875 -10.015625 C 39.796875 -8.222656 40.472656 -7.328125 41.828125 -7.328125 C 44.296875 -7.671875 47.273438 -9.648438 50.765625 -13.265625 C 52.035156 -14.578125 53.296875 -15.914062 54.546875 -17.28125 C 55.804688 -18.644531 56.582031 -19.441406 56.875 -19.671875 C 57.175781 -19.910156 57.539062 -20.03125 57.96875 -20.03125 Z M 57.96875 -20.03125 "/></g></g></g><g fill="#000000" fill-opacity="1"><g transform="translate(120.240019, 230.249985)"><g><path d="M 45.46875 -70.03125 C 45.46875 -67.601562 44.335938 -65.164062 42.078125 -62.71875 C 39.828125 -60.28125 37.476562 -59.0625 35.03125 -59.0625 C 32.59375 -59.0625 31.375 -60.332031 31.375 -62.875 C 31.375 -65.425781 32.445312 -67.859375 34.59375 -70.171875 C 36.738281 -72.492188 39.109375 -73.65625 41.703125 -73.65625 C 42.859375 -73.65625 43.773438 -73.335938 44.453125 -72.703125 C 45.128906 -72.066406 45.46875 -71.175781 45.46875 -70.03125 Z M 35.140625 -14.34375 C 35.140625 -13.070312 35.007812 -12.160156 34.75 -11.609375 C 32.664062 -7.359375 29.347656 -3.925781 24.796875 -1.3125 C 20.253906 1.300781 16.300781 2.609375 12.9375 2.609375 C 9.582031 2.609375 6.691406 1.484375 4.265625 -0.765625 C 1.847656 -3.015625 0.640625 -5.304688 0.640625 -7.640625 C 0.640625 -9.984375 1.804688 -13.382812 4.140625 -17.84375 C 6.484375 -22.3125 8.820312 -26.4375 11.15625 -30.21875 C 13.5 -34.007812 14.671875 -36.0625 14.671875 -36.375 C 14.671875 -36.695312 14.234375 -37.328125 13.359375 -38.265625 C 12.484375 -39.203125 12.046875 -39.890625 12.046875 -40.328125 C 12.046875 -40.773438 12.925781 -41.945312 14.6875 -43.84375 C 16.457031 -45.738281 18.609375 -47.609375 21.140625 -49.453125 C 23.671875 -51.304688 25.601562 -52.234375 26.9375 -52.234375 C 28.28125 -52.234375 29.484375 -51.632812 30.546875 -50.4375 C 31.609375 -49.25 32.140625 -48.164062 32.140625 -47.1875 C 32.140625 -46.207031 27.082031 -37.003906 16.96875 -19.578125 C 16.832031 -19.328125 16.476562 -18.765625 15.90625 -17.890625 C 15.332031 -17.015625 14.882812 -16.289062 14.5625 -15.71875 C 14.25 -15.144531 13.878906 -14.453125 13.453125 -13.640625 C 12.609375 -11.941406 12.1875 -10.519531 12.1875 -9.375 C 12.1875 -7.925781 13.160156 -7.203125 15.109375 -7.203125 C 17.066406 -7.203125 19.097656 -7.867188 21.203125 -9.203125 C 23.304688 -10.546875 25.125 -12.023438 26.65625 -13.640625 C 30.65625 -17.941406 32.929688 -20.09375 33.484375 -20.09375 C 34.585938 -20.09375 35.140625 -18.175781 35.140625 -14.34375 Z M 35.140625 -14.34375 "/></g></g></g><g fill="#000000" fill-opacity="1"><g transform="translate(138.737802, 230.249985)"><g><path d="M 47.828125 -82.140625 L 50.453125 -81.5 C 50.828125 -81.5 51.160156 -81.304688 51.453125 -80.921875 C 51.753906 -80.546875 51.90625 -80.1875 51.90625 -79.84375 C 51.90625 -79.5 51.457031 -78.582031 50.5625 -77.09375 C 49.675781 -75.613281 48.625 -73.925781 47.40625 -72.03125 C 46.195312 -70.132812 45.550781 -69.101562 45.46875 -68.9375 C 48.789062 -69.195312 51.140625 -69.328125 52.515625 -69.328125 C 53.898438 -69.328125 54.847656 -69.226562 55.359375 -69.03125 C 55.867188 -68.84375 56.453125 -68.3125 57.109375 -67.4375 C 57.765625 -66.570312 58.367188 -65.914062 58.921875 -65.46875 C 59.472656 -65.019531 59.75 -64.347656 59.75 -63.453125 C 59.75 -62.554688 59.207031 -61.800781 58.125 -61.1875 C 57.039062 -60.570312 55.882812 -60.203125 54.65625 -60.078125 C 44.789062 -59.097656 39.347656 -58.585938 38.328125 -58.546875 C 34.878906 -53.273438 30.0625 -45.054688 23.875 -33.890625 C 17.695312 -22.734375 14.414062 -15.753906 14.03125 -12.953125 C 13.863281 -11.671875 13.78125 -10.628906 13.78125 -9.828125 C 13.78125 -8.160156 14.648438 -7.328125 16.390625 -7.328125 C 18.128906 -7.328125 20.0625 -8 22.1875 -9.34375 C 24.3125 -10.6875 26.269531 -12.144531 28.0625 -13.71875 C 32.820312 -17.96875 35.375 -20.09375 35.71875 -20.09375 C 36.820312 -20.09375 37.375 -18.175781 37.375 -14.34375 C 37.375 -12.257812 36.414062 -10.390625 34.5 -8.734375 C 30.207031 -5.035156 26.59375 -2.25 23.65625 -0.375 C 20.726562 1.488281 17.796875 2.421875 14.859375 2.421875 C 14.222656 2.421875 13.628906 2.359375 13.078125 2.234375 C 9.671875 1.597656 7.171875 0.359375 5.578125 -1.484375 C 3.984375 -3.335938 3.195312 -5.835938 3.21875 -8.984375 C 3.238281 -12.140625 4.171875 -15.957031 6.015625 -20.4375 C 7.867188 -24.925781 10.203125 -29.695312 13.015625 -34.75 C 17.597656 -43 22.1875 -50.738281 26.78125 -57.96875 L 24.359375 -57.65625 C 19.429688 -57.101562 16.5625 -56.828125 15.75 -56.828125 L 15.171875 -56.828125 C 13.941406 -56.828125 12.753906 -57.070312 11.609375 -57.5625 C 10.460938 -58.050781 9.890625 -58.65625 9.890625 -59.375 C 9.890625 -60.09375 10.195312 -60.789062 10.8125 -61.46875 C 11.425781 -62.15625 11.796875 -62.691406 11.921875 -63.078125 C 12.222656 -64.003906 13.335938 -65.039062 15.265625 -66.1875 C 17.203125 -67.34375 18.660156 -67.953125 19.640625 -68.015625 C 20.617188 -68.078125 21.5625 -68.128906 22.46875 -68.171875 C 23.382812 -68.210938 24.40625 -68.253906 25.53125 -68.296875 C 26.664062 -68.335938 27.53125 -68.378906 28.125 -68.421875 L 33.859375 -68.6875 C 37.429688 -74.039062 39.882812 -77.484375 41.21875 -79.015625 C 42.5625 -80.546875 43.335938 -81.382812 43.546875 -81.53125 C 43.765625 -81.6875 44.191406 -81.765625 44.828125 -81.765625 Z M 47.828125 -82.140625 "/></g></g></g><g fill="#000000" fill-opacity="1"><g transform="translate(158.829884, 230.249985)"><g><path d="M 101.53125 -23.53125 L 102.03125 -21.109375 C 102.03125 -20.085938 101.5 -18.875 100.4375 -17.46875 C 97.632812 -13.8125 93.140625 -9.613281 86.953125 -4.875 C 80.765625 -0.132812 76.203125 2.234375 73.265625 2.234375 C 70.335938 2.234375 68.046875 1.375 66.390625 -0.34375 C 64.734375 -2.070312 63.90625 -4.039062 63.90625 -6.25 C 63.90625 -8.882812 66.664062 -14.707031 72.1875 -23.71875 C 80.476562 -37.113281 91.066406 -52.757812 103.953125 -70.65625 C 101.234375 -67.851562 94.003906 -60.285156 82.265625 -47.953125 C 56.285156 -20.742188 41.109375 -5.332031 36.734375 -1.71875 C 36.015625 -1.125 34.960938 -0.828125 33.578125 -0.828125 C 32.191406 -0.828125 30.734375 -1.390625 29.203125 -2.515625 C 27.671875 -3.640625 26.90625 -4.90625 26.90625 -6.3125 L 26.90625 -6.625 C 27.082031 -8.414062 31.1875 -17.15625 39.21875 -32.84375 C 47.257812 -48.53125 54 -61.007812 59.4375 -70.28125 C 51.40625 -61.4375 43.285156 -51.570312 35.078125 -40.6875 C 19.472656 -20.019531 8.054688 -2.421875 0.828125 12.109375 C 0.191406 13.472656 -0.59375 14.15625 -1.53125 14.15625 C -2.46875 14.15625 -3.828125 13.921875 -5.609375 13.453125 C -9.347656 12.429688 -11.21875 10.644531 -11.21875 8.09375 C -11.21875 6.5625 -8.09375 1.085938 -1.84375 -8.328125 C 4.40625 -17.742188 11.648438 -28.03125 19.890625 -39.1875 C 28.140625 -50.351562 36.6875 -61.097656 45.53125 -71.421875 C 57.738281 -85.710938 65.582031 -92.859375 69.0625 -92.859375 C 69.613281 -92.859375 70.144531 -92.71875 70.65625 -92.4375 C 71.164062 -92.164062 71.484375 -92.03125 71.609375 -92.03125 C 71.742188 -92.03125 71.875 -92.09375 72 -92.21875 C 72.550781 -92.894531 73.644531 -93.234375 75.28125 -93.234375 C 76.914062 -93.234375 78.507812 -92.914062 80.0625 -92.28125 C 81.613281 -91.644531 82.390625 -90.921875 82.390625 -90.109375 C 82.390625 -89.597656 80.265625 -85.539062 76.015625 -77.9375 C 61.773438 -52.675781 52.210938 -35.328125 47.328125 -25.890625 C 51.992188 -31.546875 58.675781 -39.050781 67.375 -48.40625 C 76.070312 -57.757812 85.203125 -67.09375 94.765625 -76.40625 C 107.222656 -88.476562 114.664062 -94.515625 117.09375 -94.515625 C 118.070312 -94.515625 119.300781 -94.300781 120.78125 -93.875 C 123.414062 -93.113281 125.945312 -92.734375 128.375 -92.734375 C 129.050781 -92.597656 129.632812 -92.304688 130.125 -91.859375 C 130.613281 -91.421875 130.859375 -90.96875 130.859375 -90.5 C 130.859375 -90.03125 130.734375 -89.644531 130.484375 -89.34375 C 116.660156 -70.976562 105.007812 -54.78125 95.53125 -40.75 C 86.050781 -26.71875 80.207031 -17.238281 78 -12.3125 C 82.457031 -13.25 89.109375 -18.582031 97.953125 -28.3125 C 98.335938 -28.820312 98.613281 -29.160156 98.78125 -29.328125 C 98.957031 -29.503906 99.109375 -29.675781 99.234375 -29.84375 C 99.953125 -30.695312 100.503906 -30.164062 100.890625 -28.25 C 101.054688 -27.144531 101.171875 -26.367188 101.234375 -25.921875 C 101.304688 -25.472656 101.375 -25.003906 101.4375 -24.515625 C 101.5 -24.023438 101.53125 -23.695312 101.53125 -23.53125 Z M 101.53125 -23.53125 "/></g></g></g><g fill="#000000" fill-opacity="1"><g transform="translate(251.749815, 230.249985)"><g><path d="M 52.609375 -48.46875 C 55.835938 -48.46875 57.453125 -47.363281 57.453125 -45.15625 C 57.453125 -43.957031 57.175781 -43.082031 56.625 -42.53125 C 56.070312 -41.976562 54.890625 -40.140625 53.078125 -37.015625 C 51.273438 -33.890625 49.28125 -29.894531 47.09375 -25.03125 C 44.90625 -20.164062 43.492188 -16.007812 42.859375 -12.5625 C 42.734375 -12.132812 42.671875 -11.539062 42.671875 -10.78125 C 42.671875 -8.4375 43.304688 -7.265625 44.578125 -7.265625 C 45.847656 -7.265625 47.351562 -7.867188 49.09375 -9.078125 C 50.84375 -10.296875 52.394531 -11.59375 53.75 -12.96875 C 55.113281 -14.351562 56.441406 -15.769531 57.734375 -17.21875 C 59.035156 -18.664062 59.8125 -19.492188 60.0625 -19.703125 C 60.320312 -19.921875 60.707031 -20.03125 61.21875 -20.03125 C 62.03125 -20.03125 62.519531 -19.410156 62.6875 -18.171875 C 62.851562 -16.941406 62.9375 -15.664062 62.9375 -14.34375 C 62.9375 -13.03125 62.8125 -12.117188 62.5625 -11.609375 C 61.332031 -9.179688 58.625 -6.265625 54.4375 -2.859375 C 50.25 0.535156 46.441406 2.234375 43.015625 2.234375 C 39.585938 2.234375 37.066406 1.191406 35.453125 -0.890625 C 33.835938 -2.972656 33.03125 -5.28125 33.03125 -7.8125 C 33.03125 -10.34375 33.457031 -12.566406 34.3125 -14.484375 C 30.78125 -9.890625 26.726562 -5.992188 22.15625 -2.796875 C 17.59375 0.390625 13.863281 1.984375 10.96875 1.984375 C 8.070312 1.984375 5.710938 1.109375 3.890625 -0.640625 C 1.546875 -2.804688 0.375 -5.8125 0.375 -9.65625 C 0.375 -13.507812 1.234375 -17.378906 2.953125 -21.265625 C 4.679688 -25.160156 6.945312 -28.710938 9.75 -31.921875 C 12.5625 -35.128906 15.644531 -38.050781 19 -40.6875 C 26.0625 -46.21875 32.566406 -48.984375 38.515625 -48.984375 C 40.816406 -48.984375 42.6875 -48.597656 44.125 -47.828125 C 45.570312 -47.066406 46.488281 -46.109375 46.875 -44.953125 C 47.894531 -46.484375 48.753906 -47.453125 49.453125 -47.859375 C 50.160156 -48.265625 51.210938 -48.46875 52.609375 -48.46875 Z M 44.125 -41.390625 C 36.851562 -41.390625 29.332031 -37.347656 21.5625 -29.265625 C 18.789062 -26.378906 16.242188 -22.914062 13.921875 -18.875 C 11.609375 -14.832031 10.453125 -12.066406 10.453125 -10.578125 C 10.453125 -9.097656 10.878906 -8.359375 11.734375 -8.359375 C 12.921875 -8.359375 16.234375 -10.707031 21.671875 -15.40625 C 27.117188 -20.101562 30.738281 -23.554688 32.53125 -25.765625 C 34.476562 -28.234375 38.34375 -33.441406 44.125 -41.390625 Z M 44.125 -41.390625 "/></g></g></g><g fill="#000000" fill-opacity="1"><g transform="translate(296.968143, 230.249985)"><g><path d="M 47.828125 -82.140625 L 50.453125 -81.5 C 50.828125 -81.5 51.160156 -81.304688 51.453125 -80.921875 C 51.753906 -80.546875 51.90625 -80.1875 51.90625 -79.84375 C 51.90625 -79.5 51.457031 -78.582031 50.5625 -77.09375 C 49.675781 -75.613281 48.625 -73.925781 47.40625 -72.03125 C 46.195312 -70.132812 45.550781 -69.101562 45.46875 -68.9375 C 48.789062 -69.195312 51.140625 -69.328125 52.515625 -69.328125 C 53.898438 -69.328125 54.847656 -69.226562 55.359375 -69.03125 C 55.867188 -68.84375 56.453125 -68.3125 57.109375 -67.4375 C 57.765625 -66.570312 58.367188 -65.914062 58.921875 -65.46875 C 59.472656 -65.019531 59.75 -64.347656 59.75 -63.453125 C 59.75 -62.554688 59.207031 -61.800781 58.125 -61.1875 C 57.039062 -60.570312 55.882812 -60.203125 54.65625 -60.078125 C 44.789062 -59.097656 39.347656 -58.585938 38.328125 -58.546875 C 34.878906 -53.273438 30.0625 -45.054688 23.875 -33.890625 C 17.695312 -22.734375 14.414062 -15.753906 14.03125 -12.953125 C 13.863281 -11.671875 13.78125 -10.628906 13.78125 -9.828125 C 13.78125 -8.160156 14.648438 -7.328125 16.390625 -7.328125 C 18.128906 -7.328125 20.0625 -8 22.1875 -9.34375 C 24.3125 -10.6875 26.269531 -12.144531 28.0625 -13.71875 C 32.820312 -17.96875 35.375 -20.09375 35.71875 -20.09375 C 36.820312 -20.09375 37.375 -18.175781 37.375 -14.34375 C 37.375 -12.257812 36.414062 -10.390625 34.5 -8.734375 C 30.207031 -5.035156 26.59375 -2.25 23.65625 -0.375 C 20.726562 1.488281 17.796875 2.421875 14.859375 2.421875 C 14.222656 2.421875 13.628906 2.359375 13.078125 2.234375 C 9.671875 1.597656 7.171875 0.359375 5.578125 -1.484375 C 3.984375 -3.335938 3.195312 -5.835938 3.21875 -8.984375 C 3.238281 -12.140625 4.171875 -15.957031 6.015625 -20.4375 C 7.867188 -24.925781 10.203125 -29.695312 13.015625 -34.75 C 17.597656 -43 22.1875 -50.738281 26.78125 -57.96875 L 24.359375 -57.65625 C 19.429688 -57.101562 16.5625 -56.828125 15.75 -56.828125 L 15.171875 -56.828125 C 13.941406 -56.828125 12.753906 -57.070312 11.609375 -57.5625 C 10.460938 -58.050781 9.890625 -58.65625 9.890625 -59.375 C 9.890625 -60.09375 10.195312 -60.789062 10.8125 -61.46875 C 11.425781 -62.15625 11.796875 -62.691406 11.921875 -63.078125 C 12.222656 -64.003906 13.335938 -65.039062 15.265625 -66.1875 C 17.203125 -67.34375 18.660156 -67.953125 19.640625 -68.015625 C 20.617188 -68.078125 21.5625 -68.128906 22.46875 -68.171875 C 23.382812 -68.210938 24.40625 -68.253906 25.53125 -68.296875 C 26.664062 -68.335938 27.53125 -68.378906 28.125 -68.421875 L 33.859375 -68.6875 C 37.429688 -74.039062 39.882812 -77.484375 41.21875 -79.015625 C 42.5625 -80.546875 43.335938 -81.382812 43.546875 -81.53125 C 43.765625 -81.6875 44.191406 -81.765625 44.828125 -81.765625 Z M 47.828125 -82.140625 "/></g></g></g><g fill="#000000" fill-opacity="1"><g transform="translate(317.060235, 230.249985)"><g><path d="M 47.828125 -47.703125 C 47.828125 -44.898438 46.6875 -42.429688 44.40625 -40.296875 C 42.132812 -38.171875 39.554688 -37.109375 36.671875 -37.109375 C 35.734375 -37.109375 35.113281 -37.332031 34.8125 -37.78125 C 34.519531 -38.226562 34.375 -38.8125 34.375 -39.53125 C 34.375 -40.257812 34.457031 -40.960938 34.625 -41.640625 C 33.09375 -41.128906 31.390625 -40.34375 29.515625 -39.28125 C 27.648438 -38.21875 25.359375 -36.644531 22.640625 -34.5625 C 19.921875 -32.476562 18.5625 -30.925781 18.5625 -29.90625 C 18.5625 -29.570312 19.0625 -29.40625 20.0625 -29.40625 C 21.0625 -29.40625 22.601562 -29.753906 24.6875 -30.453125 C 26.769531 -31.148438 28.222656 -31.5 29.046875 -31.5 C 29.878906 -31.5 30.421875 -31.457031 30.671875 -31.375 C 31.222656 -31.082031 31.816406 -30.4375 32.453125 -29.4375 C 33.097656 -28.4375 33.421875 -27.648438 33.421875 -27.078125 C 33.421875 -26.503906 32.863281 -25.75 31.75 -24.8125 C 30.644531 -23.875 29.390625 -23.160156 27.984375 -22.671875 C 26.585938 -22.179688 25.65625 -21.8125 25.1875 -21.5625 C 16.21875 -16.539062 11.734375 -13.09375 11.734375 -11.21875 C 11.734375 -7.90625 14.5625 -6.25 20.21875 -6.25 C 23.832031 -6.25 27.46875 -7.394531 31.125 -9.6875 C 34.226562 -11.644531 37.019531 -13.632812 39.5 -15.65625 C 41.988281 -17.675781 43.5625 -18.921875 44.21875 -19.390625 C 44.882812 -19.859375 45.382812 -20.09375 45.71875 -20.09375 C 46.832031 -20.09375 47.390625 -18.859375 47.390625 -16.390625 C 47.390625 -13.921875 47.238281 -12.289062 46.9375 -11.5 C 46.632812 -10.71875 45.785156 -9.753906 44.390625 -8.609375 C 35.285156 -1.210938 26.675781 2.484375 18.5625 2.484375 C 14.21875 2.484375 10.75 1.890625 8.15625 0.703125 C 3.394531 -1.460938 1.015625 -4.78125 1.015625 -9.25 C 1.015625 -15.113281 5.078125 -19.554688 13.203125 -22.578125 C 11.585938 -23.296875 10.546875 -24.21875 10.078125 -25.34375 C 9.609375 -26.476562 9.375 -28.285156 9.375 -30.765625 C 9.375 -33.253906 10.53125 -35.890625 12.84375 -38.671875 C 15.164062 -41.460938 18.003906 -43.75 21.359375 -45.53125 C 28.847656 -49.570312 35.523438 -51.59375 41.390625 -51.59375 C 42.796875 -51.59375 44.21875 -51.25 45.65625 -50.5625 C 47.101562 -49.882812 47.828125 -48.929688 47.828125 -47.703125 Z M 47.828125 -47.703125 "/></g></g></g></svg>